<?xml version="1.0" encoding="UTF-8" standalone="no"?>
<!-- Generator: Adobe Illustrator 14.0.0, SVG Export Plug-In . SVG Version: 6.00 Build 43363)  -->

<svg
   xmlns:dc="http://purl.org/dc/elements/1.1/"
   xmlns:cc="http://creativecommons.org/ns#"
   xmlns:rdf="http://www.w3.org/1999/02/22-rdf-syntax-ns#"
   xmlns:svg="http://www.w3.org/2000/svg"
   xmlns="http://www.w3.org/2000/svg"
   xmlns:sodipodi="http://sodipodi.sourceforge.net/DTD/sodipodi-0.dtd"
   xmlns:inkscape="http://www.inkscape.org/namespaces/inkscape"
   version="1.1"
   id="Layer_1"
   x="0px"
   y="0px"
   width="139"
   height="120"
   viewBox="0 0 139 120"
   enable-background="new 0 0 360 360"
   xml:space="preserve"
   inkscape:version="0.48.4 r9939"
   sodipodi:docname="Note_SavePL.svg"><metadata
     id="metadata9"><rdf:RDF><cc:Work
         rdf:about=""><dc:format>image/svg+xml</dc:format><dc:type
           rdf:resource="http://purl.org/dc/dcmitype/StillImage" /><dc:title /></cc:Work></rdf:RDF></metadata><defs
     id="defs7" /><sodipodi:namedview
     pagecolor="#ffffff"
     bordercolor="#666666"
     borderopacity="1"
     objecttolerance="10"
     gridtolerance="10"
     guidetolerance="10"
     inkscape:pageopacity="0"
     inkscape:pageshadow="2"
     inkscape:window-width="1366"
     inkscape:window-height="709"
     id="namedview5"
     showgrid="false"
     inkscape:zoom="1.3111111"
     inkscape:cx="382.6992"
     inkscape:cy="112.57283"
     inkscape:window-x="0"
     inkscape:window-y="27"
     inkscape:window-maximized="1"
     inkscape:current-layer="Layer_1"
     inkscape:object-paths="true" /><g
     id="g4020"
     transform="matrix(0.99927473,0,0,0.99943305,-338.75439,-25.566605)"><path
       transform="matrix(0.8261334,-0.27406308,0.21301967,0.7583437,126.8963,100.85207)"
       d="m 269.92008,131.82076 c 0,6.51566 -10.01663,11.79765 -22.37278,11.79765 -12.35614,0 -22.37278,-5.28199 -22.37278,-11.79765 0,-6.51567 10.01664,-11.79766 22.37278,-11.79766 12.35615,0 22.37278,5.28199 22.37278,11.79766 z"
       sodipodi:ry="11.797653"
       sodipodi:rx="22.37278"
       sodipodi:cy="131.82076"
       sodipodi:cx="247.5473"
       id="path3855-7-7"
       style="fill:#008e00;fill-opacity:1;fill-rule:evenodd;stroke:#008e00;stroke-width:2;stroke-linecap:round;stroke-linejoin:round;stroke-miterlimit:4;stroke-opacity:1;stroke-dasharray:none;stroke-dashoffset:0"
       sodipodi:type="arc" /><path
       sodipodi:nodetypes="ccccc"
       inkscape:connector-curvature="0"
       id="path3861-2-5"
       d="m 376.91847,58.693617 -2.37746,65.452803 3.96243,6.88977 6.33988,-74.065014 z"
       style="fill:#008e00;fill-opacity:1;stroke:none" /><path
       transform="matrix(0.8261334,-0.27406308,0.21301967,0.7583437,172.19908,85.211826)"
       d="m 269.92008,131.82076 c 0,6.51566 -10.01663,11.79765 -22.37278,11.79765 -12.35614,0 -22.37278,-5.28199 -22.37278,-11.79765 0,-6.51567 10.01664,-11.79766 22.37278,-11.79766 12.35615,0 22.37278,5.28199 22.37278,11.79766 z"
       sodipodi:ry="11.797653"
       sodipodi:rx="22.37278"
       sodipodi:cy="131.82076"
       sodipodi:cx="247.5473"
       id="path3855-7-7-8"
       style="fill:#008e00;fill-opacity:1;fill-rule:evenodd;stroke:#008e00;stroke-width:2;stroke-linecap:round;stroke-linejoin:round;stroke-miterlimit:4;stroke-opacity:1;stroke-dasharray:none;stroke-dashoffset:0"
       sodipodi:type="arc" /><path
       sodipodi:nodetypes="ccccc"
       inkscape:connector-curvature="0"
       id="path3861-2-5-0"
       d="m 422.22125,43.053374 -2.37746,65.452806 3.96243,6.88976 6.33988,-74.065007 z"
       style="fill:#008e00;fill-opacity:1;stroke:none" /><path
       transform="matrix(0.8261334,-0.27406308,0.21301967,0.7583437,217.50186,70.65022)"
       d="m 269.92008,131.82076 c 0,6.51566 -10.01663,11.79765 -22.37278,11.79765 -12.35614,0 -22.37278,-5.28199 -22.37278,-11.79765 0,-6.51567 10.01664,-11.79766 22.37278,-11.79766 12.35615,0 22.37278,5.28199 22.37278,11.79766 z"
       sodipodi:ry="11.797653"
       sodipodi:rx="22.37278"
       sodipodi:cy="131.82076"
       sodipodi:cx="247.5473"
       id="path3855-7-7-84"
       style="fill:#008e00;fill-opacity:1;fill-rule:evenodd;stroke:#008e00;stroke-width:2;stroke-linecap:round;stroke-linejoin:round;stroke-miterlimit:4;stroke-opacity:1;stroke-dasharray:none;stroke-dashoffset:0"
       sodipodi:type="arc" /><path
       sodipodi:nodetypes="ccccc"
       inkscape:connector-curvature="0"
       id="path3861-2-5-05"
       d="m 467.52403,28.491768 -2.37746,65.452802 3.96243,6.88977 6.33988,-74.065013 z"
       style="fill:#008e00;fill-opacity:1;stroke:none" /><path
       inkscape:connector-curvature="0"
       id="path3994"
       d="M 375.36584,60.361022 474.60048,29.080535"
       style="fill:none;stroke:#008e00;stroke-width:5;stroke-linecap:butt;stroke-linejoin:miter;stroke-miterlimit:4;stroke-opacity:1;stroke-dasharray:none" /></g></svg>