<?xml version="1.0" encoding="UTF-8" standalone="no"?>
<!-- Generator: Adobe Illustrator 14.0.0, SVG Export Plug-In . SVG Version: 6.00 Build 43363)  -->

<svg
   xmlns:dc="http://purl.org/dc/elements/1.1/"
   xmlns:cc="http://creativecommons.org/ns#"
   xmlns:rdf="http://www.w3.org/1999/02/22-rdf-syntax-ns#"
   xmlns:svg="http://www.w3.org/2000/svg"
   xmlns="http://www.w3.org/2000/svg"
   xmlns:sodipodi="http://sodipodi.sourceforge.net/DTD/sodipodi-0.dtd"
   xmlns:inkscape="http://www.inkscape.org/namespaces/inkscape"
   version="1.1"
   id="Layer_1"
   x="0px"
   y="0px"
   width="68"
   height="90"
   viewBox="0 0 68 90"
   enable-background="new 0 0 360 360"
   xml:space="preserve"
   inkscape:version="0.48.4 r9939"
   sodipodi:docname="Note_OpenMusic.svg"><metadata
     id="metadata9"><rdf:RDF><cc:Work
         rdf:about=""><dc:format>image/svg+xml</dc:format><dc:type
           rdf:resource="http://purl.org/dc/dcmitype/StillImage" /><dc:title /></cc:Work></rdf:RDF></metadata><defs
     id="defs7" /><sodipodi:namedview
     pagecolor="#ffffff"
     bordercolor="#666666"
     borderopacity="1"
     objecttolerance="10"
     gridtolerance="10"
     guidetolerance="10"
     inkscape:pageopacity="0"
     inkscape:pageshadow="2"
     inkscape:window-width="1366"
     inkscape:window-height="709"
     id="namedview5"
     showgrid="false"
     inkscape:zoom="1.8541911"
     inkscape:cx="210.99179"
     inkscape:cy="103.62087"
     inkscape:window-x="0"
     inkscape:window-y="27"
     inkscape:window-maximized="1"
     inkscape:current-layer="Layer_1"
     inkscape:object-paths="true" /><g
     id="g3897"
     transform="matrix(0.99747243,0,0,1.0036902,-235.0813,-29.26894)"><path
       transform="matrix(0.8261334,-0.27406308,0.21301967,0.7583437,23.577349,74.040066)"
       d="m 269.92008,131.82076 c 0,6.51566 -10.01663,11.79765 -22.37278,11.79765 -12.35614,0 -22.37278,-5.28199 -22.37278,-11.79765 0,-6.51567 10.01664,-11.79766 22.37278,-11.79766 12.35615,0 22.37278,5.28199 22.37278,11.79766 z"
       sodipodi:ry="11.797653"
       sodipodi:rx="22.37278"
       sodipodi:cy="131.82076"
       sodipodi:cx="247.5473"
       id="path3855"
       style="fill:#008e00;fill-opacity:1;fill-rule:evenodd;stroke:#008e00;stroke-width:2;stroke-linecap:round;stroke-linejoin:round;stroke-miterlimit:4;stroke-opacity:1;stroke-dasharray:none;stroke-dashoffset:0"
       sodipodi:type="arc" /><path
       sodipodi:nodetypes="ccccc"
       inkscape:connector-curvature="0"
       id="path3861"
       d="m 273.59953,31.881614 -2.37747,65.452802 3.96243,6.889764 6.33989,-74.065007 z"
       style="fill:#008e00;fill-opacity:1;stroke:none" /><path
       sodipodi:nodetypes="cssscsscc"
       inkscape:connector-curvature="0"
       id="path3869"
       d="m 280.75572,30.338861 c 0,0 -0.63241,11.116746 2.24295,16.281595 2.87537,5.164845 21.44264,8.311067 19.74066,11.459815 -1.70198,3.148753 -0.3616,9.55175 -7.28382,20.297155 -6.92222,10.745403 -2.12783,-4.716826 -2.12783,-4.716826 0,0 6.44436,-10.38445 3.37184,-14.736506 -3.07251,-4.352055 -14.88306,-4.308842 -17.2603,-10.753674 -2.37725,-6.444832 -3.94563,-16.250888 -3.94563,-16.250888 z"
       style="fill:#008e00;fill-opacity:1;stroke:none" /></g></svg>