<?xml version="1.0" encoding="UTF-8" standalone="no"?>
<!-- Generator: Adobe Illustrator 14.0.0, SVG Export Plug-In . SVG Version: 6.00 Build 43363)  -->

<svg
   xmlns:dc="http://purl.org/dc/elements/1.1/"
   xmlns:cc="http://creativecommons.org/ns#"
   xmlns:rdf="http://www.w3.org/1999/02/22-rdf-syntax-ns#"
   xmlns:svg="http://www.w3.org/2000/svg"
   xmlns="http://www.w3.org/2000/svg"
   xmlns:sodipodi="http://sodipodi.sourceforge.net/DTD/sodipodi-0.dtd"
   xmlns:inkscape="http://www.inkscape.org/namespaces/inkscape"
   version="1.1"
   id="Layer_1"
   x="0px"
   y="0px"
   width="142"
   height="116"
   viewBox="0 0 142 116"
   enable-background="new 0 0 360 360"
   xml:space="preserve"
   inkscape:version="0.48.4 r9939"
   sodipodi:docname="Note_SavePL.svg"><metadata
     id="metadata9"><rdf:RDF><cc:Work
         rdf:about=""><dc:format>image/svg+xml</dc:format><dc:type
           rdf:resource="http://purl.org/dc/dcmitype/StillImage" /><dc:title /></cc:Work></rdf:RDF></metadata><defs
     id="defs7" /><sodipodi:namedview
     pagecolor="#ffffff"
     bordercolor="#666666"
     borderopacity="1"
     objecttolerance="10"
     gridtolerance="10"
     guidetolerance="10"
     inkscape:pageopacity="0"
     inkscape:pageshadow="2"
     inkscape:window-width="1366"
     inkscape:window-height="709"
     id="namedview5"
     showgrid="false"
     inkscape:zoom="1.3111111"
     inkscape:cx="382.6992"
     inkscape:cy="112.57283"
     inkscape:window-x="0"
     inkscape:window-y="27"
     inkscape:window-maximized="1"
     inkscape:current-layer="Layer_1"
     inkscape:object-paths="true" /><g
     id="g4148"
     transform="matrix(1.0017002,0,0,1.006915,-487.06347,-26.488109)"><path
       transform="matrix(-0.8261334,0.27406308,-0.21301967,-0.7583437,745.18209,71.105248)"
       d="m 269.92008,131.82076 c 0,6.51566 -10.01663,11.79765 -22.37278,11.79765 -12.35614,0 -22.37278,-5.28199 -22.37278,-11.79765 0,-6.51567 10.01664,-11.79766 22.37278,-11.79766 12.35615,0 22.37278,5.28199 22.37278,11.79766 z"
       sodipodi:ry="11.797653"
       sodipodi:rx="22.37278"
       sodipodi:cy="131.82076"
       sodipodi:cx="247.5473"
       id="path3855-7-1"
       style="fill:#008e00;fill-opacity:1;fill-rule:evenodd;stroke:#008e00;stroke-width:2;stroke-linecap:round;stroke-linejoin:round;stroke-miterlimit:4;stroke-opacity:1;stroke-dasharray:none;stroke-dashoffset:0"
       sodipodi:type="arc" /><path
       sodipodi:nodetypes="ccccc"
       inkscape:connector-curvature="0"
       id="path3861-2-4"
       d="m 495.15992,113.2637 2.37746,-65.452802 -3.96243,-6.889768 -6.33988,74.06501 z"
       style="fill:#008e00;fill-opacity:1;stroke:none" /><path
       transform="matrix(-0.8261334,0.27406308,-0.21301967,-0.7583437,792.10283,82.430938)"
       d="m 269.92008,131.82076 c 0,6.51566 -10.01663,11.79765 -22.37278,11.79765 -12.35614,0 -22.37278,-5.28199 -22.37278,-11.79765 0,-6.51567 10.01664,-11.79766 22.37278,-11.79766 12.35615,0 22.37278,5.28199 22.37278,11.79766 z"
       sodipodi:ry="11.797653"
       sodipodi:rx="22.37278"
       sodipodi:cy="131.82076"
       sodipodi:cx="247.5473"
       id="path3855-7-1-9"
       style="fill:#008e00;fill-opacity:1;fill-rule:evenodd;stroke:#008e00;stroke-width:2;stroke-linecap:round;stroke-linejoin:round;stroke-miterlimit:4;stroke-opacity:1;stroke-dasharray:none;stroke-dashoffset:0"
       sodipodi:type="arc" /><path
       sodipodi:nodetypes="ccccc"
       inkscape:connector-curvature="0"
       id="path3861-2-4-5"
       d="m 542.08066,124.58939 2.37746,-65.452802 -3.96243,-6.889768 -6.33988,74.06501 z"
       style="fill:#008e00;fill-opacity:1;stroke:none" /><path
       transform="matrix(-0.8261334,0.27406308,-0.21301967,-0.7583437,840.10219,95.374598)"
       d="m 269.92008,131.82076 c 0,6.51566 -10.01663,11.79765 -22.37278,11.79765 -12.35614,0 -22.37278,-5.28199 -22.37278,-11.79765 0,-6.51567 10.01664,-11.79766 22.37278,-11.79766 12.35615,0 22.37278,5.28199 22.37278,11.79766 z"
       sodipodi:ry="11.797653"
       sodipodi:rx="22.37278"
       sodipodi:cy="131.82076"
       sodipodi:cx="247.5473"
       id="path3855-7-1-9-8"
       style="fill:#008e00;fill-opacity:1;fill-rule:evenodd;stroke:#008e00;stroke-width:2;stroke-linecap:round;stroke-linejoin:round;stroke-miterlimit:4;stroke-opacity:1;stroke-dasharray:none;stroke-dashoffset:0"
       sodipodi:type="arc" /><path
       sodipodi:nodetypes="ccccc"
       inkscape:connector-curvature="0"
       id="path3861-2-4-5-9"
       d="m 590.08002,137.53305 2.37746,-65.452802 -3.96243,-6.889768 -6.33988,74.06501 z"
       style="fill:#008e00;fill-opacity:1;stroke:none" /><path
       inkscape:connector-curvature="0"
       id="path4140"
       d="m 490.24073,114.2929 98.15601,23.73002"
       style="fill:none;stroke:#008e00;stroke-width:5;stroke-linecap:square;stroke-linejoin:miter;stroke-miterlimit:4;stroke-opacity:1;stroke-dasharray:none" /></g></svg>