<?xml version="1.0" encoding="UTF-8" standalone="no"?>
<!-- Generator: Adobe Illustrator 14.0.0, SVG Export Plug-In . SVG Version: 6.00 Build 43363)  -->

<svg
   xmlns:dc="http://purl.org/dc/elements/1.1/"
   xmlns:cc="http://creativecommons.org/ns#"
   xmlns:rdf="http://www.w3.org/1999/02/22-rdf-syntax-ns#"
   xmlns:svg="http://www.w3.org/2000/svg"
   xmlns="http://www.w3.org/2000/svg"
   xmlns:sodipodi="http://sodipodi.sourceforge.net/DTD/sodipodi-0.dtd"
   xmlns:inkscape="http://www.inkscape.org/namespaces/inkscape"
   version="1.1"
   id="Layer_1"
   x="0px"
   y="0px"
   width="82"
   height="172"
   viewBox="0 0 82 172"
   enable-background="new 0 0 360 360"
   xml:space="preserve"
   inkscape:version="0.48.4 r9939"
   sodipodi:docname="Note_Start.svg"><metadata
     id="metadata9"><rdf:RDF><cc:Work
         rdf:about=""><dc:format>image/svg+xml</dc:format><dc:type
           rdf:resource="http://purl.org/dc/dcmitype/StillImage" /><dc:title /></cc:Work></rdf:RDF></metadata><defs
     id="defs7" /><sodipodi:namedview
     pagecolor="#ffffff"
     bordercolor="#666666"
     borderopacity="1"
     objecttolerance="10"
     gridtolerance="10"
     guidetolerance="10"
     inkscape:pageopacity="0"
     inkscape:pageshadow="2"
     inkscape:window-width="1366"
     inkscape:window-height="709"
     id="namedview5"
     showgrid="false"
     inkscape:zoom="1.3111111"
     inkscape:cx="382.6992"
     inkscape:cy="112.57283"
     inkscape:window-x="0"
     inkscape:window-y="27"
     inkscape:window-maximized="1"
     inkscape:current-layer="Layer_1"
     inkscape:object-paths="true" /><path
     clip-rule="evenodd"
     d="m 43.894768,79.762064 c 6.11704,-0.82613 11.38424,-1.78079 19.6735,1.85438 12.34394,5.414 19.02007,21.290036 17.10844,33.365086 -2.9044,18.35836 -20.19078,26.00841 -33.79294,28.92342 1.29322,13.68806 -3.26028,26.99152 -15.17056,27.09454 -8.76959,0.0765 -16.55906,-8.53407 -16.98495,-16.22925 -0.41227,-7.4499 5.82436,-12.44495 11.38618,-11.5835 6.16274,0.9527 8.99421,5.57982 8.33301,8.62041 -1.05013,4.82433 -6.17343,6.49328 -8.84933,2.36262 -4.46598,5.03822 0.2042,10.04701 4.25791,11.03012 9.77014,2.37047 10.85334,-13.61448 10.2602,-20.8652 -27.82953,-5.36102 -44.2534403,-26.53136 -37.6657903,-51.113166 5.85936,-21.86892 23.0067003,-30.20774 36.0740603,-40.828722 -0.38407,-17.18883 -1.29127,-34.1039 -1.47991,-51.3927996 13.88122,3.14852 20.43387,16.0457696 22.12381,26.7982296 1.6034,10.20203 -2.7848,23.66443 -9.46774,30.03997 -1.44685,1.3795 -5.29346,2.50979 -6.26386,4.680102 -1.75898,3.93442 1.77162,12.95612 0.45797,17.24376 z m -0.85469,-30.007582 c 13.25698,-9.56429 11.40952,-35.55503 -2.13333,-42.3112496 0.40255,14.2649796 0.64564,28.6133696 2.13333,42.3112496 z m -24.85221,41.455682 c -7.37233,20.144046 0.46575,39.034186 23.03781,44.931896 0.30921,-3.5449 -0.15266,-6.68754 -0.13807,-10.07938 -16.5542,-6.90928 -19.72794,-29.535646 -6.55751,-41.127976 1.96803,-1.7337 4.44266,-1.78962 5.16803,-3.5449 0.7205,-1.74253 -1.06861,-14.32582 -0.88387,-15.8937 -7.95477,6.39319 -16.28681,13.8529 -20.62639,25.71406 z m 54.17138,16.270456 c -1.44199,-10.651396 -14.8487,-23.729186 -27.85481,-15.628786 0.22364,2.79629 0.57757,5.52684 0.22947,8.621386 2.00498,0.053 3.75812,-2.016266 6.18802,-2.104566 2.17708,-0.0765 4.55544,0.75549 5.79324,1.48939 11.59134,6.872976 3.01913,28.944996 -10.50329,27.478166 -0.0156,2.9209 0.35004,5.6436 0.2285,8.6214 11.26464,-1.90737 28.15624,-11.95535 25.91887,-28.47699 z m -31.83463,9.85274 c 0.23823,-7.64417 -0.0146,-15.03127 -0.74773,-22.168176 -6.18607,6.938716 -5.24484,18.035556 0.74773,22.168176 z m 17.19304,-8.97559 c -2.06235,-6.54625 -10.68512,-4.76546 -12.29922,1.62675 -1.05791,4.19639 1.26891,6.67086 0.36658,10.52483 6.6771,2.45975 13.90553,-5.89673 11.93264,-12.15158 z"
     id="path3"
     style="fill:#008e00;fill-opacity:1;fill-rule:evenodd"
     inkscape:connector-curvature="0" /></svg>