<?xml version="1.0" encoding="UTF-8" standalone="no"?>
<!-- Generator: Adobe Illustrator 14.0.0, SVG Export Plug-In . SVG Version: 6.00 Build 43363)  -->

<svg
   xmlns:dc="http://purl.org/dc/elements/1.1/"
   xmlns:cc="http://creativecommons.org/ns#"
   xmlns:rdf="http://www.w3.org/1999/02/22-rdf-syntax-ns#"
   xmlns:svg="http://www.w3.org/2000/svg"
   xmlns="http://www.w3.org/2000/svg"
   xmlns:sodipodi="http://sodipodi.sourceforge.net/DTD/sodipodi-0.dtd"
   xmlns:inkscape="http://www.inkscape.org/namespaces/inkscape"
   version="1.1"
   id="Layer_1"
   x="0px"
   y="0px"
   width="45"
   height="111"
   viewBox="0 0 45 111"
   enable-background="new 0 0 360 360"
   xml:space="preserve"
   inkscape:version="0.48.4 r9939"
   sodipodi:docname="Note_Exit.svg"><metadata
     id="metadata9"><rdf:RDF><cc:Work
         rdf:about=""><dc:format>image/svg+xml</dc:format><dc:type
           rdf:resource="http://purl.org/dc/dcmitype/StillImage" /><dc:title /></cc:Work></rdf:RDF></metadata><defs
     id="defs7" /><sodipodi:namedview
     pagecolor="#ffffff"
     bordercolor="#666666"
     borderopacity="1"
     objecttolerance="10"
     gridtolerance="10"
     guidetolerance="10"
     inkscape:pageopacity="0"
     inkscape:pageshadow="2"
     inkscape:window-width="1366"
     inkscape:window-height="709"
     id="namedview5"
     showgrid="false"
     inkscape:zoom="1.3111111"
     inkscape:cx="382.6992"
     inkscape:cy="112.57283"
     inkscape:window-x="0"
     inkscape:window-y="27"
     inkscape:window-maximized="1"
     inkscape:current-layer="Layer_1"
     inkscape:object-paths="true" /><path
     style="fill:#008e00;fill-opacity:1;stroke:none"
     d="m 4.229069,1.000003 c 0,0 19.70444,23.32732 28.78389,32.56043 9.52026,9.681397 -11.54352,19.068447 -11.54352,22.133457 3.28456,10.68949 12.27327,15.20992 22.53056,22.80457 0,0 -20.35019,-5.39293 -23.49964,-4.39423 -3.14943,0.99869 -7.26793,2.39685 -8.7215,5.19318 -1.45358,2.79634 0.509,9.14675 2.56655,11.88663 3.22256,4.29123 12.4436,15.08192 14.38171,18.27775 1.93811,3.1958 -12.69597,-8.48079 -20.88027,-18.11777 C 0.23393902,82.37985 -2.416641,70.99248 7.175839,69.71 c 8.96379,-1.19844 16.71623,-0.9987 16.71623,-0.9987 0,0 -20.59246,-9.05708 -17.92755,-13.01741 2.6649,-3.96032 14.05132,-11.9092 12.59773,-16.943295 C 17.108679,33.716493 4.229069,1.000003 4.229069,1.000003 z"
     id="path4186"
     inkscape:connector-curvature="0"
     sodipodi:nodetypes="csccsssssscssc" /></svg>